<svg width="16" height="16" viewBox="0 0 16 16" xmlns="http://www.w3.org/2000/svg">
<path d="M13.8571 0H2.42858C2.1125 0 1.85715 0.255357 1.85715 0.571429V15.4286C1.85715 15.7446 2.1125 16 2.42858 16H13.8571C14.1732 16 14.4286 15.7446 14.4286 15.4286V0.571429C14.4286 0.255357 14.1732 0 13.8571 0ZM3.14286 1.28571H13.1429V5H3.14286V1.28571ZM13.1429 9.85714H3.14286V6.14286H13.1429V9.85714ZM13.1429 14.7143H3.14286V11H13.1429V14.7143ZM7.85715 2.57143H4.57143C4.49286 2.57143 4.42858 2.63571 4.42858 2.71429V3.57143C4.42858 3.65 4.49286 3.71429 4.57143 3.71429H7.85715C7.93572 3.71429 8 3.65 8 3.57143V2.71429C8 2.63571 7.93572 2.57143 7.85715 2.57143ZM4.57143 8.57143H7.85715C7.93572 8.57143 8 8.50714 8 8.42857V7.57143C8 7.49286 7.93572 7.42857 7.85715 7.42857H4.57143C4.49286 7.42857 4.42858 7.49286 4.42858 7.57143V8.42857C4.42858 8.50714 4.49286 8.57143 4.57143 8.57143ZM10.4286 12.9286C10.4286 13.118 10.5038 13.2997 10.6378 13.4336C10.7717 13.5676 10.9534 13.6429 11.1429 13.6429C11.3323 13.6429 11.514 13.5676 11.6479 13.4336C11.7819 13.2997 11.8571 13.118 11.8571 12.9286C11.8571 12.7391 11.7819 12.5574 11.6479 12.4235C11.514 12.2895 11.3323 12.2143 11.1429 12.2143C10.9534 12.2143 10.7717 12.2895 10.6378 12.4235C10.5038 12.5574 10.4286 12.7391 10.4286 12.9286Z"/>
</svg>
