  <svg
    width="16"
    height="16"
    viewBox="0 0 16 16"
    xmlns="http://www.w3.org/2000/svg"
  >
    <path d="M8.71024 13.705L13.7061 8.70913C13.7971 8.6141 13.8684 8.50205 13.916 8.3794C14.0159 8.13614 14.0159 7.86329 13.916 7.62002C13.8684 7.49737 13.7971 7.38532 13.7061 7.2903L8.71024 2.29441C8.61708 2.20125 8.50648 2.12735 8.38476 2.07693C8.26304 2.02651 8.13258 2.00056 8.00083 2.00056C7.73475 2.00056 7.47956 2.10627 7.29141 2.29441C7.10326 2.48256 6.99756 2.73775 6.99756 3.00383C6.99756 3.26991 7.10326 3.5251 7.29141 3.71324L10.5887 7.00054L3.00495 7.00053C2.73995 7.00053 2.4858 7.1058 2.29842 7.29319C2.11104 7.48057 2.00577 7.73471 2.00577 7.99971C2.00577 8.26471 2.11104 8.51885 2.29842 8.70624C2.4858 8.89362 2.73995 8.99889 3.00495 8.99889L10.5887 8.99889L7.29141 12.2862C7.19776 12.3791 7.12343 12.4896 7.0727 12.6113C7.02198 12.7331 6.99586 12.8637 6.99586 12.9956C6.99586 13.1275 7.02198 13.2581 7.0727 13.3799C7.12343 13.5016 7.19776 13.6121 7.29141 13.705C7.3843 13.7987 7.49481 13.873 7.61657 13.9237C7.73833 13.9744 7.86893 14.0006 8.00083 14.0006C8.13273 14.0006 8.26333 13.9744 8.38509 13.9237C8.50685 13.873 8.61736 13.7987 8.71024 13.705Z" />
  </svg>
