<svg width="11" height="10" viewBox="0 0 11 10" fill="none" xmlns="http://www.w3.org/2000/svg">
<path d="M6.09167 9.75832L10.2583 5.59166C10.3342 5.5124 10.3937 5.41895 10.4333 5.31666C10.5167 5.11377 10.5167 4.88621 10.4333 4.68332C10.3937 4.58103 10.3342 4.48758 10.2583 4.40832L6.09167 0.241658C6.01397 0.163959 5.92173 0.102326 5.82021 0.0602753C5.71869 0.0182251 5.60989 -0.00341818 5.5 -0.00341819C5.27809 -0.0034182 5.06526 0.0847384 4.90834 0.241658C4.75142 0.398578 4.66326 0.611407 4.66326 0.833325C4.66326 1.05524 4.75142 1.26807 4.90834 1.42499L7.65834 4.16666L1.33334 4.16666C1.11232 4.16666 0.900363 4.25446 0.744082 4.41074C0.587802 4.56702 0.500006 4.77898 0.500006 4.99999C0.500005 5.221 0.587802 5.43297 0.744082 5.58925C0.900363 5.74553 1.11232 5.83332 1.33334 5.83332L7.65834 5.83332L4.90834 8.57499C4.83023 8.65246 4.76824 8.74463 4.72593 8.84618C4.68362 8.94773 4.66184 9.05665 4.66184 9.16666C4.66184 9.27667 4.68362 9.38559 4.72593 9.48714C4.76824 9.58869 4.83023 9.68085 4.90834 9.75832C4.98581 9.83643 5.07797 9.89843 5.17952 9.94073C5.28107 9.98304 5.38999 10.0048 5.5 10.0048C5.61001 10.0048 5.71894 9.98304 5.82049 9.94073C5.92203 9.89843 6.0142 9.83643 6.09167 9.75832Z" fill="#982568"/>
</svg>
