<svg width="16" height="16" viewBox="0 0 16 16" fill="none" xmlns="http://www.w3.org/2000/svg">
<g clip-path="url(#clip0_228_118)">
<path d="M7.99999 14.6667C11.6819 14.6667 14.6667 11.6819 14.6667 8C14.6667 4.3181 11.6819 1.33334 7.99999 1.33334C4.3181 1.33334 1.33333 4.3181 1.33333 8C1.33333 11.6819 4.3181 14.6667 7.99999 14.6667Z" stroke="#111111" stroke-width="1.33333" stroke-linecap="round" stroke-linejoin="round"/>
<path d="M7.99999 10.6667C9.47275 10.6667 10.6667 9.47276 10.6667 8C10.6667 6.52724 9.47275 5.33334 7.99999 5.33334C6.52724 5.33334 5.33333 6.52724 5.33333 8C5.33333 9.47276 6.52724 10.6667 7.99999 10.6667Z" stroke="#111111" stroke-width="1.33333" stroke-linecap="round" stroke-linejoin="round"/>
<path d="M3.28665 3.28667L6.11332 6.11333" stroke="#111111" stroke-width="1.33333" stroke-linecap="round" stroke-linejoin="round"/>
<path d="M9.99998 10L12.8267 12.8267" stroke="#111111" stroke-width="1.33333" stroke-linecap="round" stroke-linejoin="round"/>
<path d="M9.88667 6.11333L12.7133 3.28667" stroke="#111111" stroke-width="1.33333" stroke-linecap="round" stroke-linejoin="round"/>
<path d="M9.88667 6.11334L12.24 3.76" stroke="#111111" stroke-width="1.33333" stroke-linecap="round" stroke-linejoin="round"/>
<path d="M3.28665 12.7133L6.11332 9.88667" stroke="#111111" stroke-width="1.33333" stroke-linecap="round" stroke-linejoin="round"/>
</g>
<defs>
<clipPath id="clip0_228_118">
<rect width="16" height="16" fill="white"/>
</clipPath>
</defs>
</svg>
